<svg width="31" height="31" viewBox="0 0 31 31" fill="none" xmlns="http://www.w3.org/2000/svg">
<path d="M16.75 2C16.75 2.82843 16.0784 3.5 15.25 3.5C14.4216 3.5 13.75 2.82843 13.75 2C13.75 1.17157 14.4216 0.5 15.25 0.5C16.0784 0.5 16.75 1.17157 16.75 2Z" fill="#0D0D0C"/>
<path d="M30.25 15.5C30.25 16.3284 29.5784 17 28.75 17C27.9216 17 27.25 16.3284 27.25 15.5C27.25 14.6716 27.9216 14 28.75 14C29.5784 14 30.25 14.6716 30.25 15.5Z" fill="#0D0D0C"/>
<path d="M16.75 29C16.75 29.8284 16.0784 30.5 15.25 30.5C14.4216 30.5 13.75 29.8284 13.75 29C13.75 28.1716 14.4216 27.5 15.25 27.5C16.0784 27.5 16.75 28.1716 16.75 29Z" fill="#0D0D0C"/>
<path d="M6.76468 4.89341C7.35047 5.4792 7.35047 6.42894 6.76468 7.01473C6.1789 7.60052 5.22915 7.60052 4.64336 7.01473C4.05758 6.42894 4.05758 5.4792 4.64336 4.89341C5.22915 4.30762 6.1789 4.30762 6.76468 4.89341Z" fill="#0D0D0C"/>
<path d="M25.8565 23.9853C26.4423 24.5711 26.4423 25.5208 25.8565 26.1066C25.2708 26.6924 24.321 26.6924 23.7352 26.1066C23.1494 25.5208 23.1494 24.5711 23.7352 23.9853C24.321 23.3995 25.2708 23.3995 25.8565 23.9853Z" fill="#0D0D0C"/>
<path d="M4.64332 23.9853C5.22911 23.3995 6.17885 23.3995 6.76464 23.9853C7.35043 24.5711 7.35043 25.5208 6.76464 26.1066C6.17885 26.6924 5.22911 26.6924 4.64332 26.1066C4.05753 25.5208 4.05753 24.5711 4.64332 23.9853Z" fill="#0D0D0C"/>
<path d="M23.7352 4.89337C24.321 4.30758 25.2707 4.30758 25.8565 4.89337C26.4423 5.47915 26.4423 6.4289 25.8565 7.01469C25.2707 7.60047 24.321 7.60047 23.7352 7.01469C23.1494 6.4289 23.1494 5.47915 23.7352 4.89337Z" fill="#0D0D0C"/>
<path d="M3.25 15.5C3.25 16.3284 2.57843 17 1.75 17C0.921573 17 0.25 16.3284 0.25 15.5C0.25 14.6716 0.921573 14 1.75 14C2.57843 14 3.25 14.6716 3.25 15.5Z" fill="#0D0D0C"/>
<path d="M24.25 15.5C24.25 20.4706 20.2206 24.5 15.25 24.5C10.2794 24.5 6.25 20.4706 6.25 15.5C6.25 10.5294 10.2794 6.5 15.25 6.5C20.2206 6.5 24.25 10.5294 24.25 15.5Z" fill="#0D0D0C"/>
</svg>
